# xmcd CD database file
#
# Track frame offsets:
#	150
#	17758
#	35073
#	49799
#	62990
#	76370
#	88903
#	103003
#	117047
#	136450
#	154373
#	167009
#	182047
#	195555
#	202970
#
# Disc length: 2991 seconds
#
# Revision: 3
# Processed by: cddbd v1.5.2PL0 Copyright (c) Steve Scherf et al.
# Submitted via: CDex 1.51
#
DISCID=cf0bad0f
DTITLE=Sara STORER - Beautiful Circle
DYEAR=2002
DGENRE=Country
TTITLE0=Tell These Hands
TTITLE1=Back Out Back
TTITLE2=Drovers' Call
TTITLE3=Beautiful Circle
TTITLE4=Night After Night
TTITLE5=Old Piece Of Tin
TTITLE6=Raining On The Plains (Duet with John Williamson)
TTITLE7=Back On The Grader
TTITLE8=Sweet Dreams
TTITLE9=Kiss A Cowboy
TTITLE10=Kurrajong Tree
TTITLE11=Better Next Year
TTITLE12=Boss Drovers Pride
TTITLE13=Tell These Hands (Reprise)
TTITLE14=Bonus track: I'll Be Home Soon (Duet with Travis Sinclair)
EXTD=YEAR: 2002
EXTT0=
EXTT1=
EXTT2=
EXTT3=
EXTT4=
EXTT5=
EXTT6=
EXTT7=
EXTT8=
EXTT9=
EXTT10=
EXTT11=
EXTT12=
EXTT13=
EXTT14=
PLAYORDER=
